<?xml version="1.0" encoding="utf-8"?>
<!-- Generator: Adobe Illustrator 23.0.1, SVG Export Plug-In . SVG Version: 6.00 Build 0)  -->
<svg version="1.1" id="Layer_1" xmlns="http://www.w3.org/2000/svg" xmlns:xlink="http://www.w3.org/1999/xlink" x="0px" y="0px"
	 viewBox="0 0 512 512" style="enable-background:new 0 0 512 512;" xml:space="preserve">
<style type="text/css">
	.st0{fill:#FFFFFF;}
</style>
<path class="st0" d="M266,492c0,11-9,20-20,20H20c-11,0-20-9-20-20V216.7c0-5.9,2.6-11.6,7.2-15.4l236-196.7
	c7.4-6.2,18.2-6.2,25.6,0l236,196.7c8.5,7.1,9.6,19.7,2.6,28.2c-7.1,8.5-19.7,9.6-28.2,2.6L256,46L40,226v246h206
	C257,472,266,481,266,492z M480.3,437.9c-21.9,26.5-54.7,50.7-97.4,72c-5.6,2.8-12.2,2.8-17.9,0c-42.7-21.3-75.5-45.5-97.4-72
	c-65.1-78.5-19.8-165.2,47.3-165.2c26.7,0,46.4,10.9,59,21.2c12.6-10.3,32.3-21.2,59-21.2C500.2,272.7,545.3,359.6,480.3,437.9z
	 M433,312.7c-27.7,0-42.2,20.7-42.3,20.9c-8.3,12.5-25.8,11.8-33.3,0.1c-1.2-1.7-15.6-21-42.4-21c-43.1,0-80.1,83.1,59,156.8
	C513.1,395.8,476.1,312.7,433,312.7z"/>
</svg>
