<svg id="Capa_1" enable-background="new 0 0 512.179 512.179" height="512" viewBox="0 0 512.179 512.179" width="512" xmlns="http://www.w3.org/2000/svg"><path d="m298.891 96.116 54.987-96.116h-195.577l54.987 96.116z"/><path d="m368.82 255.687 81.595-141.152-63.229-114.356-121.611 212.575c5.143.239 10.229.697 15.24 1.397 33.652 4.701 64.072 19.626 88.005 41.536z"/><path d="m124.993.179-63.228 114.355 82.913 143.432c26.956-25.697 62.612-42.337 102.038-45.018z"/><path d="m257.132 327.73c-27.094 0-49.137 22.043-49.137 49.137s22.043 49.137 49.137 49.137c27.095 0 49.138-22.043 49.138-49.137s-22.043-49.137-49.138-49.137z"/><path d="m257.973 241.556c-74.611 0-135.312 60.7-135.312 135.312s60.7 135.312 135.312 135.312 135.312-60.7 135.312-135.312-60.701-135.312-135.312-135.312zm-.841 214.518c-43.674 0-79.206-35.532-79.206-79.206s35.532-79.206 79.206-79.206c43.675 0 79.207 35.532 79.207 79.206s-35.532 79.206-79.207 79.206z"/></svg>