<?xml version="1.0" encoding="utf-8"?>
<!-- Generator: Adobe Illustrator 23.0.1, SVG Export Plug-In . SVG Version: 6.00 Build 0)  -->
<svg version="1.1" id="Capa_1" xmlns="http://www.w3.org/2000/svg" xmlns:xlink="http://www.w3.org/1999/xlink" x="0px" y="0px"
	 viewBox="0 0 512 512" style="enable-background:new 0 0 512 512;" xml:space="preserve">
<style type="text/css">
	.st0{fill:#FFFFFF;}
</style>
<g>
	<g>
		<g>
			<path class="st0" d="M7,271.2c30.3,26,64.6,55.4,131,55.4c66.4,0,100.7-29.4,131-55.4c28.6-24.6,53.4-45.8,105-45.8
				c51.6,0,76.3,21.2,105,45.8c8.4,7.2,21,6.2,28.2-2.2c7.2-8.4,6.2-21-2.2-28.2c-30.3-26-64.6-55.4-131-55.4s-100.7,29.4-131,55.4
				c-28.6,24.6-53.4,45.8-105,45.8c-51.6,0-76.3-21.2-105-45.8c-8.4-7.2-21-6.2-28.2,2.2C-2.4,251.4-1.4,264,7,271.2z"/>
			<path class="st0" d="M7,161.8c30.3,26,64.6,55.4,131,55.4c66.4,0,100.7-29.4,131-55.4c28.6-24.6,53.4-45.8,105-45.8
				c51.6,0,76.3,21.2,105,45.8c8.4,7.2,21,6.2,28.2-2.2c7.2-8.4,6.2-21-2.2-28.2c-30.3-26-64.6-55.4-131-55.4
				c-66.4,0-100.7,29.4-131,55.4c-28.6,24.6-53.4,45.8-105,45.8c-51.6,0-76.3-21.2-105-45.8c-8.4-7.2-21-6.2-28.2,2.2
				C-2.4,142-1.4,154.6,7,161.8z"/>
			<path class="st0" d="M505,350.2c-30.3-26-64.6-55.4-131-55.4s-100.7,29.4-131,55.4c-28.6,24.6-53.4,45.8-105,45.8
				c-51.6,0-76.3-21.2-105-45.8l0,0c-8.4-7.2-21-6.2-28.2,2.2c-7.2,8.4-6.2,21,2.2,28.2c30.3,26,64.6,55.4,131,55.4
				c66.4,0,100.7-29.4,131-55.4c28.6-24.6,53.4-45.8,105-45.8c51.6,0,76.3,21.2,105,45.8c8.4,7.2,21,6.2,28.2-2.2
				C514.4,370,513.4,357.4,505,350.2z"/>
		</g>
	</g>
</g>
</svg>
