<?xml version="1.0" encoding="utf-8"?>
<!-- Generator: Adobe Illustrator 23.0.1, SVG Export Plug-In . SVG Version: 6.00 Build 0)  -->
<svg version="1.1" id="Capa_1" xmlns="http://www.w3.org/2000/svg" xmlns:xlink="http://www.w3.org/1999/xlink" x="0px" y="0px"
	 viewBox="0 0 512 512" style="enable-background:new 0 0 512 512;" xml:space="preserve">
<style type="text/css">
	.st0{fill:#FFFFFF;}
</style>
<path class="st0" d="M138,118c0,11-9,20-20,20s-20-9-20-20s9-20,20-20S138,107,138,118z M394,98c-11,0-20,9-20,20s9,20,20,20
	s20-9,20-20S405,98,394,98z M394,374c-11,0-20,9-20,20s9,20,20,20s20-9,20-20S405,374,394,374z M512,396.1
	c-1.1,63.5-52.9,115-116.3,115.8c-0.6,0-1.1,0-1.7,0c-64.8,0-118-52.4-118-118c0-48.2,29-64.2,29-137.3v-1.3
	c0-14.9-1.5-29.7-4.4-44.2c-12.1-2.5-26.3-4.2-43.9-4.2h-1.3c-73.8,0-88.8,29-137.3,29C52.1,236-0.9,182.2,0,116.3
	C0.9,52.8,52.4,1.1,115.9,0c48.9-0.9,67.8,29,139.5,29h1.3c72.2,0,90.3-29.8,139.5-29c63.5,1.1,115,52.9,115.8,116.3
	c0.7,50.3-29,65.6-29,139v1.3C483,328.7,512.9,347.1,512,396.1L512,396.1z M472,395.4c0.6-36.1-29-60.6-29-138.8v-1.3
	c0-10.3,0.6-20.6,1.9-30.8c-15.7,7.5-33,11.5-50.9,11.5c-20.1,0-35.2-5.3-50.8-11.2c1.2,10.1,1.8,20.3,1.8,30.5v1.3
	c0,79.2-29,102.1-29,137.3c0,43.4,35.4,78.6,79.1,78C437,471.4,471.2,437.3,472,395.4L472,395.4z M472,116.9
	C471.4,75,437.3,40.8,395.4,40c-36.1-0.6-60.7,29-138.8,29h-1.3c-77.6,0-102.9-29.6-138.8-29c-41.9,0.7-76,35-76.6,76.9
	c-0.6,43.6,34.5,79.1,78,79.1c35.6,0,57.3-29,137.3-29h1.3c79.2,0,102.1,29,137.3,29C437.8,196,472.6,160.2,472,116.9L472,116.9z"/>
</svg>
