<?xml version="1.0" encoding="utf-8"?>
<!-- Generator: Adobe Illustrator 23.0.1, SVG Export Plug-In . SVG Version: 6.00 Build 0)  -->
<svg version="1.1" id="Layer_1" xmlns="http://www.w3.org/2000/svg" xmlns:xlink="http://www.w3.org/1999/xlink" x="0px" y="0px"
	 viewBox="0 0 512 512" style="enable-background:new 0 0 512 512;" xml:space="preserve">
<style type="text/css">
	.st0{fill:#FFFFFF;}
</style>
<path class="st0" d="M456.2,393.3l-37.7-128.7c22.9-13.8,38.3-39,38.3-67.7c0-43.6-35.4-79-79-79c-54.8,0-92.8,54.5-74.3,105.8
	l-57.9,39.7c-22.6-21.7-53.8-31.3-84.6-26.2l-36.6-94.3c19.6-14.3,32.4-37.4,32.4-63.4C156.9,36.2,121.7,1,78.4,1
	C35.2,1,0,36.2,0,79.4c0,46.4,40.4,83.1,87.2,77.9l36.6,94.3c-27.1,17.6-45.1,48.1-45.1,82.8c0,54.4,44.3,98.7,98.7,98.7
	c70.6,0,118.2-72.3,91-136.9l57.9-39.7c13.9,12,31.9,19.3,51.6,19.3c0.8,0,1.5,0,2.3-0.1l37.7,128.8c-14.8,10.8-24.4,28.3-24.4,48
	c0,32.7,26.6,59.3,59.3,59.3s59.3-26.6,59.3-59.3C512,421,487.3,395.1,456.2,393.3z M40,79.4C40,58.2,57.2,41,78.4,41
	c21.2,0,38.4,17.2,38.4,38.4s-17.2,38.4-38.4,38.4C57.2,117.9,40,100.6,40,79.4z M177.3,393.2c-32.3,0-58.7-26.3-58.7-58.7
	c0-32.3,26.3-58.7,58.7-58.7c32.4,0,58.7,26.3,58.7,58.7C236,366.9,209.7,393.2,177.3,393.2z M338.8,196.9c0-21.5,17.5-39,39-39
	s39,17.5,39,39c0,21.5-17.5,39-39,39S338.8,218.4,338.8,196.9z M452.7,471.9c-10.7,0-19.3-8.7-19.3-19.3s8.7-19.3,19.3-19.3
	s19.3,8.7,19.3,19.3S463.3,471.9,452.7,471.9z"/>
</svg>
