<?xml version="1.0" encoding="utf-8"?>
<!-- Generator: Adobe Illustrator 23.0.1, SVG Export Plug-In . SVG Version: 6.00 Build 0)  -->
<svg version="1.1" id="Layer_1" xmlns="http://www.w3.org/2000/svg" xmlns:xlink="http://www.w3.org/1999/xlink" x="0px" y="0px"
	 viewBox="0 0 300 300" style="enable-background:new 0 0 300 300;" xml:space="preserve">
<style type="text/css">
	.st0{fill:#FFFFFF;}
</style>
<g>
	<g>
		<path class="st0" d="M150,0C67.2,0,0,67.2,0,150s67.2,150,150,150s150-67.2,150-150S232.8,0,150,0z M133.3,150
			c0,3.1-0.6,6.1-1.6,8.9l41.9,20.1c4.8-5.3,11.7-8.6,19.4-8.6c14.6,0,26.4,11.8,26.4,26.3c0,14.6-11.8,26.4-26.4,26.4
			c-14.6,0-26.4-11.8-26.4-26.4c0-1.4,0.1-2.8,0.4-4.1l-44.6-21.4c-4.4,3.2-9.7,5.1-15.5,5.1c-14.6,0-26.4-11.8-26.4-26.4
			c0-14.6,11.8-26.3,26.4-26.3c5.8,0,11.2,1.9,15.5,5.1l44.6-21.4c-0.2-1.3-0.4-2.7-0.4-4.1c0-14.6,11.8-26.4,26.4-26.4
			c14.6,0,26.4,11.8,26.4,26.4c0,14.6-11.8,26.4-26.4,26.4c-7.7,0-14.6-3.3-19.4-8.6l-41.9,20.1C132.7,143.9,133.3,146.9,133.3,150z
			"/>
	</g>
</g>
</svg>
