<?xml version="1.0" encoding="utf-8"?>
<!-- Generator: Adobe Illustrator 23.0.1, SVG Export Plug-In . SVG Version: 6.00 Build 0)  -->
<svg version="1.1" id="Layer_1" xmlns="http://www.w3.org/2000/svg" xmlns:xlink="http://www.w3.org/1999/xlink" x="0px" y="0px"
	 viewBox="0 0 512 512" style="enable-background:new 0 0 512 512;" xml:space="preserve">
<style type="text/css">
	.st0{fill:#FFFFFF;}
</style>
<path class="st0" d="M386,173.6L318.7,196l-46.1-69.1c-7.9-11.8-25.4-11.9-33.3,0L193.3,196L126,173.6c-14.5-4.8-28.9,7.8-25.9,22.9
	c29.7,142.7,25.1,138.9,32.7,146.5c67.9,67.9,178.4,67.9,246.4,0c7.6-7.6,3.1-4.1,32.7-146.5C414.9,181.5,400.6,168.7,386,173.6z
	 M346.7,318.7c-51.2,46.9-130.2,46.9-181.3,0l-19.3-96.4l49.1,16.4c8.6,2.9,18-0.4,23-7.9l37.9-56.8l37.9,56.8
	c5,7.5,14.4,10.7,23,7.9l49.1-16.4L346.7,318.7z M256,0C114.5,0,0,114.5,0,256c0,141.5,114.5,256,256,256c141.5,0,256-114.5,256-256
	C512,114.5,397.5,0,256,0z M256,472c-119.4,0-216-96.6-216-216c0-119.4,96.6-216,216-216c119.4,0,216,96.6,216,216
	C472,375.4,375.4,472,256,472z"/>
</svg>
