<?xml version="1.0" encoding="utf-8"?>
<!-- Generator: Adobe Illustrator 23.0.1, SVG Export Plug-In . SVG Version: 6.00 Build 0)  -->
<svg version="1.1" id="Capa_1" xmlns="http://www.w3.org/2000/svg" xmlns:xlink="http://www.w3.org/1999/xlink" x="0px" y="0px"
	 viewBox="0 0 512 512" style="enable-background:new 0 0 512 512;" xml:space="preserve">
<style type="text/css">
	.st0{fill:#FFFFFF;}
</style>
<path class="st0" d="M501,159.4l-236-118c-5.6-2.8-12.3-2.8-17.9,0l-236,118c-14.7,7.4-14.7,28.4,0,35.8l103.2,51.6L79.4,368.5
	c-3.7,12.8,6,25.5,19.2,25.5c89.1,0,130.5,63.3,143.2,72.8c7.8,7.8,20.5,7.8,28.3,0c19.1-18.5,27-28.7,44.5-41.3v27.1
	c0,11,9,20,20,20s20-9,20-20v-48.3c18.5-6.8,38.3-10.4,58.7-10.4c13.3,0,22.9-12.7,19.2-25.5l-34.8-121.7L501,195.2
	C515.7,187.9,515.7,166.8,501,159.4z M256,424.4c-6.5-5.6-49.8-58.6-131.3-68.8l25.9-90.6l96.5,48.2c5.6,2.8,12.3,2.8,17.9,0
	l49.7-24.9v90.3C279.9,397.1,261.8,419.2,256,424.4z M387.3,355.6c-11,1.4-21.9,3.6-32.6,6.8v-94l6.7-3.4L387.3,355.6z M338.6,231.7
	l-68.5-68.5c-7.8-7.8-20.5-7.8-28.3,0s-7.8,20.5,0,28.3l59.1,59L256,273c-9.5-4.8-187.5-93.8-191.3-95.6L256,81.7l191.3,95.6
	C435.2,183.4,356.4,222.8,338.6,231.7L338.6,231.7z"/>
</svg>
