<?xml version="1.0" encoding="utf-8"?>
<!-- Generator: Adobe Illustrator 22.1.0, SVG Export Plug-In . SVG Version: 6.00 Build 0)  -->
<svg version="1.1" id="Layer_1" xmlns="http://www.w3.org/2000/svg" xmlns:xlink="http://www.w3.org/1999/xlink" x="0px" y="0px"
	 viewBox="0 0 1920 4962.6" style="enable-background:new 0 0 1920 4962.6;" xml:space="preserve">
<style type="text/css">
	.st0{fill:none;}
	.st1{fill:none;stroke:#FFFFFF;stroke-width:0.5;stroke-miterlimit:10;}
	.st2{fill:#435159;}
	.st3{fill:#48565E;}
	.st4{fill:#4C5A63;}
	.st5{fill:#515F68;}
	.st6{fill:#56646D;}
	.st7{fill:#596970;}
	.st8{fill:#5E6E75;}
	.st9{fill:#63717A;}
	.st10{fill:#68777F;}
	.st11{fill:#6D7C85;}
	.st12{fill:#72818A;}
	.st13{fill:#77878F;}
	.st14{fill:#7D8C95;}
	.st15{fill:#82929B;}
	.st16{fill:#8898A0;}
	.st17{fill:#8E9EA6;}
	.st18{opacity:0.14;fill:url(#SVGID_3_);enable-background:new    ;}
	.st19{opacity:0.14;fill:url(#SVGID_4_);enable-background:new    ;}
</style>
<pattern  y="2458" width="33.3" height="33.3" patternUnits="userSpaceOnUse" id="SVGID_1_" viewBox="0 -33.3 33.3 33.3" style="overflow:visible;">
	<g>
		<rect y="-33.3" class="st0" width="33.3" height="33.3"/>
		<g>
			<rect y="-33.3" class="st0" width="33.3" height="33.3"/>
			<g>
				<rect y="-33.3" class="st0" width="33.3" height="33.3"/>
				<line class="st1" x1="16.7" y1="-19.2" x2="16.7" y2="-14.2"/>
				<line class="st1" x1="19.2" y1="-16.7" x2="14.2" y2="-16.7"/>
			</g>
		</g>
	</g>
</pattern>
<polygon class="st2" points="1920,2481.8 1920,1382 1539.8,1247.9 1054.2,1326.1 0,1405.9 0,2481.8 "/>
<polygon class="st2" points="0,1407.5 1054.2,1327.8 1539.8,1249.6 1920,1383.6 1920,0 0,0 "/>
<polygon class="st3" points="1920,1353.3 1504.7,1217.7 1006.3,1285.5 0,1374 0,0 1920,0 "/>
<polygon class="st4" points="0,1338.9 1078.2,1230.4 1444,1180.9 1920,1327.8 1920,0 0,0 "/>
<polygon class="st5" points="1920,1297.4 1410.4,1145.8 0,1303.8 0,0 1920,0 "/>
<polygon class="st6" points="0,1252.8 559.1,1201.7 971.2,1104.4 1396.1,1105.9 1670.8,1192.1 1920,1220.8 1920,0 0,0 "/>
<polygon class="st7" points="1920,1163.4 1675.6,1171.4 1375.3,1088.4 961.6,1035.7 559.1,1184.1 0,1228.8 0,0 1920,0 "/>
<polygon class="st8" points="0,1195.3 565.5,1165 953.6,975.1 1656.4,1145.8 1691.6,1145.8 1920,1112.3 1920,0 0,0 "/>
<polygon class="st9" points="1920,1086.8 1614.9,1086.8 1049.4,927.2 1015.9,927.2 627.8,1083.6 0,1136.3 0,0 1920,0 "/>
<polygon class="st10" points="0,1077.2 677.3,1010.2 1099,876.2 1575,1027.8 1920,1058.1 1920,0 0,0 "/>
<polygon class="st11" points="1920,1026.2 1517.5,962.3 1180.4,817.1 746,920.9 0,1010.2 0,0 1920,0 "/>
<polygon class="st12" points="0,957.6 718.8,890.5 1193.2,775.7 1223.6,775.7 1551,922.5 1920,983.1 1920,0 0,0 "/>
<polygon class="st13" points="1920,935.2 1579.8,881 1245.9,727.8 699.6,857 0,903.3 0,0 1920,0 "/>
<polygon class="st14" points="0,847.5 667.7,826.7 1268.3,686.3 1622.9,844.3 1920,892.1 1920,0 0,0 "/>
<path class="st15" d="M1920,809.2l-297.1-33.5l-351.4-118.1l-263.6,35.1c0,0-333.8,71.8-338.6,71.8s-289.1,20.7-289.1,20.7L0,766.1
	V0h1920V809.2z"/>
<polygon class="st16" points="0,681.5 388.2,732.6 680.5,699.1 991.9,638.4 1269.9,632 1597.3,700.7 1920,732.6 1920,0 0,0 "/>
<polygon class="st17" points="1920,643.2 1001.5,579.4 377,678.3 0,596.9 0,0 1920,0 "/>
<pattern  id="SVGID_3_" xlink:href="#SVGID_1_" patternTransform="matrix(0 1.8425 -1.8444 0 -27187.1563 7920.5801)">
</pattern>
<polygon class="st18" points="4.4,2481.8 4.4,1.5 1915.6,1.5 1915.6,2481.8 "/>
<polygon class="st2" points="0,2480.2 0,3580 380.2,3714.1 865.8,3635.9 1920,3556.1 1920,2480.2 "/>
<polygon class="st2" points="1920,3554.5 865.8,3634.3 380.2,3712.5 0,3578.4 0,4962 1920,4962 "/>
<polygon class="st3" points="0,3608.7 415.3,3744.4 913.7,3676.6 1920,3588 1920,4962 0,4962 "/>
<polygon class="st4" points="1920,3623.1 841.8,3731.6 476,3781.1 0,3634.3 0,4962 1920,4962 "/>
<polygon class="st5" points="0,3664.6 509.6,3816.2 1920,3658.2 1920,4962 0,4962 "/>
<polygon class="st6" points="1920,3709.3 1360.9,3760.3 948.8,3857.7 523.9,3856.1 249.2,3769.9 0,3741.2 0,4962 1920,4962 "/>
<polygon class="st7" points="0,3798.6 244.4,3790.7 544.7,3873.6 958.4,3926.3 1360.9,3777.9 1920,3733.2 1920,4962 0,4962 "/>
<polygon class="st8" points="1920,3766.7 1354.6,3797 966.4,3986.9 263.6,3816.2 228.4,3816.2 0,3849.7 0,4962 1920,4962 "/>
<polygon class="st9" points="0,3875.2 305.1,3875.2 870.6,4034.8 904.1,4034.8 1292.3,3878.4 1920,3825.8 1920,4962 0,4962 "/>
<polygon class="st10" points="1920,3884.8 1242.7,3951.8 821,4085.8 345,3934.3 0,3903.9 0,4962 1920,4962 "/>
<polygon class="st11" points="0,3935.9 402.5,3999.7 739.6,4144.9 1174.1,4041.2 1920,3951.8 1920,4962 0,4962 "/>
<polygon class="st12" points="1920,4004.5 1201.2,4071.5 726.8,4186.4 696.4,4186.4 369,4039.6 0,3978.9 0,4962 1920,4962 "/>
<polygon class="st13" points="0,4026.8 340.2,4081.1 674.1,4234.2 1220.4,4105 1920,4058.7 1920,4962 0,4962 "/>
<polygon class="st14" points="1920,4114.6 1252.3,4135.3 651.7,4275.7 297.1,4117.8 0,4069.9 0,4962 1920,4962 "/>
<path class="st15" d="M0,4152.9l297.1,33.5l351.4,118.1l263.6-35.1c0,0,333.8-71.8,338.6-71.8c4.8,0,289.1-20.7,289.1-20.7
	l380.2,19.1V4962H0V4152.9z"/>
<polygon class="st16" points="1920,4280.5 1531.8,4229.5 1239.5,4263 928.1,4323.6 650.1,4330 322.7,4261.4 0,4229.5 0,4962 
	1920,4962 "/>
<polygon class="st17" points="0,4318.8 918.5,4382.6 1543,4283.7 1920,4365.1 1920,4962 0,4962 "/>
<pattern  id="SVGID_4_" xlink:href="#SVGID_1_" patternTransform="matrix(0 1.8425 -1.8444 0 -27187.1563 7920.5801)">
</pattern>
<polygon class="st19" points="1915.6,2480.2 1915.6,4960.5 4.4,4960.5 4.4,2480.2 "/>
</svg>
