<?xml version="1.0" encoding="utf-8"?>
<!-- Generator: Adobe Illustrator 22.1.0, SVG Export Plug-In . SVG Version: 6.00 Build 0)  -->
<svg version="1.1" id="Layer_1" xmlns="http://www.w3.org/2000/svg" xmlns:xlink="http://www.w3.org/1999/xlink" x="0px" y="0px"
	 viewBox="0 0 65 65" style="enable-background:new 0 0 65 65;" xml:space="preserve">
<style type="text/css">
	.st0{fill:#FFFFFF;}
	.st1{fill:#646D70;}
</style>
<title>MW_logo_darkAsset 10</title>
<g>
	<g>
		<circle class="st0" cx="32.5" cy="32.5" r="27.8"/>
	</g>
	<g>
		<g>
			<g>
				<path class="st1" d="M18,42c0.5-2.1,0.8-3.5,0.8-6c0-0.4,0-1.1,0-2.5c0-2.4,0-6.4,0-9.8c0-1.5,0-2.9,0-4l0,0l0,0
					c0.2,0.2,0.3,0.3,0.4,0.4c0.2,0.2,0.2,0.2,0.2,0.2s7.8,7.8,12.1,12.1c0.5,0.5,0.9,0.9,1,1c1.5-1.5,2.3-2.3,2.7-2.7
					c1.8-1.8,2.6-3,3.7-4.8c-1.8,1.1-3,1.9-4.8,3.7c-0.3,0.3-0.7,0.7-1.6,1.6l0,0c-4.2-4.2-11.9-11.9-11.9-11.9s-0.2-0.2-2.4-2.4
					c-0.1-0.1-0.2-0.2-0.4-0.4c-0.1-0.1-0.2-0.2-0.3-0.3c-0.1-0.1-0.1-0.1-0.2-0.2l-0.1-0.1c0,0-0.1-0.1-0.1,0c0,0.8,0,1.8,0,3
					c0,1.3,0,3.1,0,4.9c0,3.4,0,7.3,0,9.8c0,1.4,0,2.1,0,2.5C17.2,38.5,17.5,39.9,18,42z"/>
			</g>
		</g>
	</g>
	<g>
		<g>
			<g>
				<path class="st1" d="M18,50.7c1.8-1.1,3-1.9,4.8-3.7c1.6-1.6,6.9-6.9,9.6-9.6c5.6,5.6,8.7,8.7,8.7,8.7s0.4,0.4,1.4,1.4
					c0.5,0.5,1.1,1.1,1.9,1.9c0.6,0.6,1.4,1.4,2.1,2.1c0.2,0.2,0.5,0.5,0.8,0.8l0.4,0.4c0.1,0.1,0-0.1,0.1-0.1l0-0.3
					c0-0.8,0-1.6,0-2.4c0-2.9,0-10,0-14.5c0-1.9,0-3.1,0-3.7c0-2.5-0.3-3.9-0.8-6c-0.5,2.1-0.8,3.5-0.8,6c0,0.6,0,1.8,0,3.7
					c0,4.1,0,10.8,0,13.5C43.3,46,42.3,45,42.3,45s-3.2-3.2-9.1-9.1c-0.2-0.2-0.4-0.4-0.7-0.7l-0.1-0.1c0,0-0.1,0.1-0.1,0.1
					l-0.2,0.2l-0.4,0.4c-0.3,0.3-0.7,0.7-1,1c-0.5,0.5-1.1,1.1-1.6,1.6c-1.1,1.1-2.4,2.4-3.5,3.5c-1.7,1.7-3.3,3.3-4,4
					C19.9,47.7,19.1,48.9,18,50.7z"/>
			</g>
		</g>
	</g>
</g>
</svg>
